<svg width="27" height="21" viewBox="0 0 27 21" fill="none" xmlns="http://www.w3.org/2000/svg">
<path fill-rule="evenodd" clip-rule="evenodd" d="M24.9012 2.92637H22.1255C22.0301 2.93328 21.8379 3.0646 21.8006 3.15031L17.9314 14.028C17.9245 14.046 17.9107 14.0585 17.9038 14.0764C17.883 14.1276 17.8526 14.1704 17.825 14.2188C17.7697 14.317 17.7088 14.4082 17.6328 14.4897C17.5941 14.5312 17.554 14.5658 17.5098 14.6031C17.4227 14.6764 17.3273 14.7358 17.2236 14.7856C17.1766 14.8091 17.1324 14.8353 17.0813 14.8533C16.9209 14.9114 16.7536 14.9501 16.5781 14.9501C16.5781 14.9501 16.5781 14.9501 16.5767 14.9501H4.68984C4.08575 14.9501 3.54801 14.5893 3.34481 14.0488L0.136368 5.47957C-0.019838 5.06348 0.046515 4.60178 0.314691 4.24098C0.581486 3.88019 1.01693 3.66593 1.4814 3.66593H18.6032L19.0967 2.27666C19.5156 1.0989 20.8178 0.211426 22.1255 0.211426H24.9012C25.6905 0.211426 26.3292 0.818279 26.3292 1.5689C26.3292 2.31951 25.6905 2.92637 24.9012 2.92637ZM3.50511 6.38057L5.69752 12.2348H15.5551L17.6369 6.38057H3.50511ZM5.17365 16.2022C6.54632 16.2022 7.66465 17.2638 7.66465 18.5701C7.66465 19.8765 6.54632 20.9381 5.17365 20.9381C3.79959 20.9381 2.68265 19.8765 2.68265 18.5701C2.68265 17.2638 3.79959 16.2022 5.17365 16.2022ZM17.0164 16.2022C18.3905 16.2022 19.5088 17.2638 19.5088 18.5701C19.5088 19.8765 18.3905 20.9381 17.0164 20.9381C15.6424 20.9381 14.5268 19.8765 14.5268 18.5701C14.5268 17.2638 15.6424 16.2022 17.0164 16.2022Z" fill="#595959"/>
</svg>
