<svg width="16" height="16" viewBox="0 0 18 18" fill="black" xmlns="http://www.w3.org/2000/svg">
<path d="M17.3915 3.54538L11.9376 8.99988L17.3915 14.4541C18.2027 15.2657 18.2027 16.5803 17.3915 17.3918C16.9862 17.7972 16.4548 18 15.9236 18C15.3916 18 14.8601 17.7975 14.4551 17.3918L8.99999 11.937L3.54534 17.3918C3.14006 17.7971 2.60859 17.9999 2.07696 17.9999C1.54549 17.9999 1.01438 17.7974 0.608738 17.3918C-0.202499 16.5806 -0.202499 15.2659 0.608738 14.4541L6.06246 8.99983L0.608428 3.54538C-0.202809 2.73413 -0.202809 1.41921 0.608428 0.607969C1.41951 -0.202656 2.73364 -0.202656 3.54503 0.607969L8.99994 6.06247L14.4544 0.607969C15.266 -0.202656 16.5803 -0.202656 17.3912 0.607969C18.2027 1.41921 18.2027 2.73413 17.3915 3.54538Z" fill="#000000"/>
</svg>
