<svg enable-background="new 0 0 512 512" height="512" viewBox="0 0 512 512" width="512" xmlns="http://www.w3.org/2000/svg"><g><path d="m497 61h-46v-15c0-8.284-6.716-15-15-15s-15 6.716-15 15v15h-30v-15c0-8.284-6.716-15-15-15s-15 6.716-15 15v15h-60v-15c0-8.284-6.716-15-15-15s-15 6.716-15 15v15h-30v-15c0-8.284-6.716-15-15-15s-15 6.716-15 15v15h-60v-15c0-8.284-6.716-15-15-15s-15 6.716-15 15v15h-30v-15c0-8.284-6.716-15-15-15s-15 6.716-15 15v15h-46c-8.284 0-15 6.716-15 15v390c0 8.284 6.716 15 15 15h482c8.284 0 15-6.716 15-15v-390c0-8.284-6.716-15-15-15zm-15 390h-452v-360h31v15c0 8.284 6.716 15 15 15s15-6.716 15-15v-15h30v15c0 8.284 6.716 15 15 15s15-6.716 15-15v-15h60v15c0 8.284 6.716 15 15 15s15-6.716 15-15v-15h30v15c0 8.284 6.716 15 15 15s15-6.716 15-15v-15h60v15c0 8.284 6.716 15 15 15s15-6.716 15-15v-15h30v15c0 8.284 6.716 15 15 15s15-6.716 15-15v-15h31z"/><circle cx="316" cy="166" r="15"/><circle cx="376" cy="166" r="15"/><circle cx="436" cy="166" r="15"/><circle cx="316" cy="226" r="15"/><circle cx="376" cy="226" r="15"/><circle cx="256" cy="226" r="15"/><circle cx="436" cy="226" r="15"/><circle cx="316" cy="286" r="15"/><circle cx="376" cy="286" r="15"/><circle cx="256" cy="286" r="15"/><circle cx="436" cy="286" r="15"/><circle cx="316" cy="346" r="15"/><circle cx="376" cy="346" r="15"/><circle cx="256" cy="346" r="15"/><circle cx="436" cy="346" r="15"/><circle cx="316" cy="406" r="15"/><circle cx="256" cy="406" r="15"/><path d="m147.713 186.629c-5.999-7.499-17.423-7.503-23.426 0-.636.795-15.754 19.758-31.062 44.634-21.383 34.748-32.225 63.258-32.225 84.737 0 41.355 33.645 75 75 75s75-33.645 75-75c0-21.479-10.842-49.989-32.226-84.736-15.307-24.877-30.425-43.839-31.061-44.635zm-11.713 174.371c-24.813 0-45-20.187-45-45 0-26.138 26.431-68.951 45-95.007 18.57 26.058 45 68.869 45 95.007 0 24.813-20.187 45-45 45z"/></g></svg>