<svg width="24" height="23" viewBox="0 0 24 23" fill="none" xmlns="http://www.w3.org/2000/svg">
<mask id="mask0" mask-type="alpha" maskUnits="userSpaceOnUse" x="1" y="0" width="21" height="23">
<path fill-rule="evenodd" clip-rule="evenodd" d="M10.5137 0.929074C10.5137 0.415977 10.9297 0 11.4428 0C11.9559 0 12.3719 0.415977 12.3719 0.929074V13.4852L15.0142 10.8429C15.377 10.4801 15.9653 10.4801 16.3281 10.8429C16.6909 11.2058 16.6909 11.7941 16.3282 12.1568L12.1073 16.3777C11.9386 16.5503 11.7032 16.6574 11.4428 16.6574C11.1821 16.6574 10.9464 16.55 10.7777 16.3771L6.55746 12.1568C6.19463 11.794 6.19463 11.2058 6.55746 10.8429C6.92025 10.4801 7.50855 10.4801 7.87138 10.8429L10.5137 13.4853V0.929074ZM20.0276 16.7855C20.0276 16.2723 20.4435 15.8564 20.9567 15.8564C21.4698 15.8564 21.8858 16.2723 21.8858 16.7855V19.9567C21.8858 21.6348 20.5207 23 18.8426 23H4.04328C2.36522 23 1 21.6348 1 19.9567V16.7855C1 16.2723 1.41598 15.8564 1.92907 15.8564C2.44217 15.8564 2.85815 16.2723 2.85815 16.7855V19.9567C2.85815 20.6102 3.38975 21.1418 4.04323 21.1418H18.8425C19.496 21.1418 20.0276 20.6102 20.0276 19.9567V16.7855Z" fill="white"/>
</mask>
<g mask="url(#mask0)">
<rect x="0.666748" width="23" height="23" fill="white"/>
</g>
</svg>
