<?xml version="1.0" encoding="utf-8"?>
<!-- Generator: Adobe Illustrator 23.0.1, SVG Export Plug-In . SVG Version: 6.00 Build 0)  -->
<svg version="1.1" id="Layer_1" xmlns="http://www.w3.org/2000/svg" xmlns:xlink="http://www.w3.org/1999/xlink" x="0px" y="0px"
	 viewBox="0 0 32 32" style="enable-background:new 0 0 32 32;" xml:space="preserve">
<path d="M2.3,8.5h27.4c1.3,0,2.3-1,2.3-2.3s-1-2.3-2.3-2.3H2.3C1,3.9,0,5,0,6.2S1,8.5,2.3,8.5z M29.7,13.2H2.3c-1.3,0-2.3,1-2.3,2.3
	s1,2.3,2.3,2.3h27.4c1.3,0,2.3-1,2.3-2.3S31,13.2,29.7,13.2z M29.7,22.4H2.3c-1.3,0-2.3,1-2.3,2.3C0,26,1,27,2.3,27h27.4
	c1.3,0,2.3-1,2.3-2.3C32,23.4,31,22.4,29.7,22.4z"/>
</svg>
