<svg width="17" height="17" viewBox="0 0 17 17" fill="none" xmlns="http://www.w3.org/2000/svg">
<path fill-rule="evenodd" clip-rule="evenodd" d="M13.464 9.988H13.013V7.983H13.464C14.065 7.983 14.023 8.412 14.023 9.017C14.023 9.621 14.065 9.988 13.464 9.988ZM2.99 10.004H2.539C1.938 10.004 1.98 9.575 1.98 8.97C1.98 8.366 1.938 7.968 2.539 7.968H2.99V10.004ZM13.464 5.995H13.013V4.786C13.013 2.32 10.455 0 8.001 0C5.548 0 2.99 2.32 2.99 4.786V6.01H2.539C1.139 6.01 0 7.562 0 8.97C0 10.378 1.139 11.992 2.539 11.992H5.002V7.001V6.729V4.974C5.002 3.311 6.347 2.083 8.001 2.083C9.655 2.083 11.001 3.311 11.001 4.974V6.87V7.141V11.248V11.976V13.226C11.001 13.915 10.443 14.476 9.758 14.476H9.63C9.352 13.849 8.728 13.409 8.001 13.409C7.017 13.409 6.215 14.214 6.215 15.205C6.215 16.195 7.017 17 8.001 17C8.728 17 9.352 16.561 9.63 15.933H9.758C11.242 15.933 13.013 14.719 13.013 13.226V11.976H13.464C14.864 11.976 16.003 10.425 16.003 9.017C16.003 7.609 14.864 5.995 13.464 5.995Z" fill="#F26863"/>
</svg>
