<svg width="17" height="22" viewBox="0 0 17 22" fill="none" xmlns="http://www.w3.org/2000/svg">
<path fill-rule="evenodd" clip-rule="evenodd" d="M8.24966 2.75C6.73304 2.75 5.49966 4.29275 5.49966 6.1875C5.49966 8.08225 6.73304 9.625 8.24966 9.625C9.76629 9.625 10.9997 8.08225 10.9997 6.1875C10.9997 4.29275 9.76629 2.75 8.24966 2.75ZM8.24966 12.375C5.21641 12.375 2.74966 9.59888 2.74966 6.1875C2.74966 2.77612 5.21641 0 8.24966 0C11.2829 0 13.7497 2.77612 13.7497 6.1875C13.7497 9.59888 11.2829 12.375 8.24966 12.375ZM12.6225 22.0002H3.87337C1.73662 22.0002 0 20.1495 0 17.8752C0 16.7821 0.235125 15.6849 0.680625 14.7017L1.37225 13.181C1.68575 12.4894 2.5025 12.1855 3.19275 12.4976C3.88438 12.8125 4.18962 13.6279 3.87613 14.3195L3.18587 15.8402C2.89987 16.4672 2.75 17.1712 2.75 17.8752C2.75 18.6342 3.25462 19.2502 3.87337 19.2502H12.6225C13.244 19.2502 13.75 18.6315 13.75 17.8725C13.75 17.1699 13.5988 16.4686 13.3155 15.843L12.6225 14.3195C12.309 13.6279 12.6156 12.8125 13.3073 12.4976C14.0003 12.1855 14.8142 12.4894 15.1277 13.181L15.8194 14.7059C16.2635 15.6849 16.5 16.7794 16.5 17.8725C16.5 20.1481 14.7606 22.0002 12.6225 22.0002Z" fill="#3C3D48"/>
</svg>
