<svg width="22" height="22" viewBox="0 0 22 22" fill="none" xmlns="http://www.w3.org/2000/svg">
<mask id="mask0" mask-type="alpha" maskUnits="userSpaceOnUse" x="1" y="0" width="20" height="22">
<path fill-rule="evenodd" clip-rule="evenodd" d="M11 0C13.4471 0 15.7478 0.952961 17.4782 2.68336C19.2086 4.41375 20.1615 6.71443 20.1616 9.16158C20.1616 10.7796 19.6901 12.4643 18.7604 14.1688C18.0375 15.4943 17.0352 16.8373 15.7816 18.1605C13.6688 20.3907 11.5808 21.7922 11.4929 21.8507C11.3437 21.9502 11.1718 22 11 22C10.8281 22 10.6563 21.9502 10.507 21.8507C10.4192 21.7922 8.33117 20.3907 6.2184 18.1605C4.96474 16.8373 3.9625 15.4942 3.23955 14.1688C2.30983 12.4643 1.83838 10.7796 1.83838 9.16158C1.83838 6.71443 2.7913 4.41375 4.52173 2.68336C6.25213 0.952961 8.55285 0 11 0ZM3.61578 9.16158C3.61578 14.1685 9.27373 18.7411 11 20.0193C12.7255 18.7416 18.3842 14.1689 18.3842 9.16158C18.3841 5.0899 15.0716 1.77736 11 1.77736C6.92829 1.77736 3.61578 5.0899 3.61578 9.16158ZM11 5.51525C8.98941 5.51525 7.35363 7.15099 7.35363 9.16158C7.35363 11.1721 8.98937 12.8079 11 12.8079C13.0106 12.8079 14.6463 11.1722 14.6463 9.16158C14.6463 7.15099 13.0105 5.51525 11 5.51525ZM9.13103 9.16158C9.13103 10.1921 9.96944 11.0305 11 11.0305C12.0305 11.0305 12.8689 10.1921 12.8689 9.16158C12.8689 8.13106 12.0305 7.29266 11 7.29266C9.96944 7.29266 9.13103 8.13106 9.13103 9.16158Z" fill="white"/>
</mask>
<g mask="url(#mask0)">
<rect width="22" height="22" fill="#333333"/>
</g>
</svg>
