<svg width="17" height="22" viewBox="0 0 17 22" fill="none" xmlns="http://www.w3.org/2000/svg">
<path fill-rule="evenodd" clip-rule="evenodd" d="M2.75 6.875H1.375C0.614625 6.875 0 7.491 0 8.25V16.5124C0 19.5374 2.46125 22 5.48763 22H10.9986C14.0319 22 16.5 19.5319 16.5 16.4986V8.25C16.5 7.491 15.8854 6.875 15.125 6.875H13.75V5.5C13.75 2.46675 11.2832 0 8.25 0C5.21675 0 2.75 2.46675 2.75 5.5V6.875ZM2.75 9.625V16.5124C2.75 18.0221 3.97925 19.25 5.48763 19.25H10.9986C12.5166 19.25 13.75 18.0166 13.75 16.4986V9.625H2.75ZM5.5 6.875H11V5.5C11 3.98337 9.76663 2.75 8.25 2.75C6.73338 2.75 5.5 3.98337 5.5 5.5V6.875ZM8.24987 14.4282C7.13612 14.4282 6.02512 14.1738 5.01037 13.6678L4.88525 13.6045C4.206 13.2649 3.92962 12.4399 4.26925 11.7607C4.61162 11.0814 5.43662 10.8064 6.1145 11.1447L6.23962 11.2079C7.49912 11.8377 9.00062 11.8377 10.2601 11.2079L10.3852 11.1447C11.0659 10.8064 11.8881 11.0814 12.2305 11.7607C12.5701 12.4399 12.2937 13.2649 11.6145 13.6045L11.4894 13.6678C10.4746 14.1738 9.36362 14.4282 8.24987 14.4282Z" fill="#3C3D48"/>
</svg>
