<svg width="17" height="16" viewBox="0 0 17 16" fill="none" xmlns="http://www.w3.org/2000/svg">
<mask id="mask0" mask-type="alpha" maskUnits="userSpaceOnUse" x="0" y="0" width="17" height="16">
<path fill-rule="evenodd" clip-rule="evenodd" d="M2.6249 0H14.0417C15.2967 0 16.3177 1.02104 16.3177 2.27602V10.4309C16.3177 11.6859 15.2966 12.7069 14.0416 12.7069H4.52307L1.45007 15.7799C1.32669 15.9033 1.1617 15.9688 0.993836 15.9688C0.910748 15.9688 0.826912 15.9527 0.74713 15.9197C0.506039 15.8199 0.348877 15.5847 0.348877 15.3237V2.27602C0.348877 1.02104 1.36991 0 2.6249 0ZM14.0416 11.4168C14.5853 11.4168 15.0276 10.9745 15.0276 10.4308V2.27602C15.0276 1.73239 14.5853 1.2901 14.0417 1.2901H2.6249C2.08128 1.2901 1.63898 1.73239 1.63898 2.27602V13.7664L3.79973 11.6057C3.92072 11.4847 4.08477 11.4168 4.25587 11.4168H14.0416Z" fill="white"/>
</mask>
<g mask="url(#mask0)">
<rect x="0.333252" width="16" height="16" fill="white"/>
</g>
</svg>
