<svg id="svg" version="1.1" xmlns="http://www.w3.org/2000/svg" xmlns:xlink="http://www.w3.org/1999/xlink" width="400" height="154.8828125" viewBox="0, 0, 400,154.8828125"><g id="svgg"><path id="path0" d="M0.000 77.000 L 0.000 114.667 7.277 114.667 L 14.554 114.667 14.450 93.639 L 14.345 72.612 14.889 73.139 C 15.188 73.429,15.483 73.667,15.544 73.667 C 15.605 73.667,16.135 74.135,16.722 74.708 C 17.309 75.281,18.005 75.941,18.270 76.174 C 19.529 77.287,22.121 79.617,22.432 79.916 C 22.623 80.100,23.368 80.775,24.088 81.417 C 24.807 82.058,25.593 82.771,25.835 83.000 C 26.076 83.229,26.712 83.792,27.247 84.250 C 27.783 84.708,28.448 85.327,28.724 85.625 C 29.001 85.923,29.276 86.167,29.334 86.167 C 29.393 86.167,29.855 86.560,30.361 87.042 C 31.346 87.979,31.669 88.272,34.248 90.570 C 35.166 91.387,36.142 92.259,36.417 92.506 C 36.692 92.754,37.241 93.247,37.637 93.603 C 38.033 93.959,38.799 94.662,39.338 95.167 C 39.878 95.671,40.473 96.203,40.661 96.348 C 40.848 96.494,41.477 97.056,42.059 97.598 C 42.640 98.140,43.450 98.883,43.859 99.250 C 44.267 99.617,45.348 100.598,46.259 101.431 C 47.171 102.264,48.479 103.445,49.167 104.055 C 49.854 104.665,50.492 105.234,50.583 105.320 C 50.675 105.406,51.075 105.782,51.472 106.155 C 51.868 106.528,52.214 106.833,52.240 106.833 C 52.283 106.833,53.536 107.966,54.915 109.250 C 55.210 109.525,56.000 110.237,56.669 110.833 C 57.339 111.429,58.164 112.179,58.501 112.500 C 58.839 112.821,59.558 113.472,60.100 113.947 C 60.641 114.421,61.383 115.078,61.750 115.405 C 62.117 115.732,62.468 116.000,62.530 116.000 C 62.593 116.000,62.692 116.150,62.750 116.333 C 62.808 116.517,62.950 116.667,63.066 116.667 C 63.181 116.667,63.454 116.857,63.673 117.090 C 63.902 117.334,64.215 117.493,64.411 117.465 L 64.750 117.417 64.792 79.875 L 64.834 42.333 57.504 42.333 L 50.174 42.333 50.281 63.687 L 50.388 85.041 50.036 84.853 C 49.842 84.749,49.586 84.527,49.467 84.359 C 49.348 84.192,48.462 83.358,47.500 82.508 C 46.538 81.657,45.482 80.689,45.155 80.356 C 44.828 80.022,44.016 79.262,43.349 78.667 C 42.682 78.071,41.855 77.321,41.510 77.000 C 41.164 76.679,40.423 76.004,39.863 75.500 C 39.302 74.996,38.260 74.034,37.547 73.362 C 36.834 72.690,35.652 71.602,34.922 70.945 C 34.192 70.288,33.042 69.225,32.367 68.583 C 31.693 67.942,31.015 67.366,30.862 67.303 C 30.709 67.241,30.651 67.185,30.734 67.178 C 30.817 67.172,30.704 67.016,30.484 66.833 C 30.060 66.480,27.869 64.483,26.827 63.500 C 26.487 63.179,25.471 62.242,24.569 61.417 C 22.369 59.405,21.382 58.499,20.846 58.000 C 20.447 57.629,18.198 55.570,16.774 54.272 C 16.282 53.823,14.171 51.875,11.679 49.571 C 11.076 49.014,9.983 48.008,9.250 47.336 C 7.826 46.032,7.749 45.959,5.833 44.153 C 5.146 43.505,4.343 42.787,4.050 42.557 C 3.757 42.328,3.113 41.752,2.620 41.278 C 1.206 39.920,0.487 39.333,0.234 39.333 C 0.034 39.333,0.000 44.779,0.000 77.000 M335.353 39.559 C 335.054 39.920,335.006 114.300,335.305 114.415 C 335.724 114.576,349.811 114.505,349.912 114.342 C 350.053 114.112,350.069 111.762,349.946 109.167 C 349.813 106.387,349.612 72.500,349.727 72.500 C 349.773 72.500,350.322 72.985,350.947 73.577 C 351.572 74.170,352.346 74.885,352.667 75.166 C 353.334 75.751,353.877 76.238,355.846 78.021 C 356.618 78.721,357.581 79.583,357.985 79.938 C 358.389 80.293,358.926 80.771,359.178 81.000 C 359.430 81.229,360.259 81.979,361.021 82.667 C 361.782 83.354,362.676 84.179,363.007 84.500 C 363.338 84.821,364.086 85.496,364.667 86.000 C 365.249 86.504,366.001 87.179,366.338 87.500 C 366.675 87.821,367.419 88.496,367.992 89.000 C 368.565 89.504,369.279 90.142,369.579 90.417 C 369.879 90.692,370.667 91.404,371.329 92.000 C 371.992 92.596,372.776 93.308,373.072 93.583 C 373.368 93.858,374.193 94.608,374.905 95.250 C 376.485 96.673,376.394 96.592,378.336 98.342 C 379.205 99.126,380.210 100.026,380.568 100.342 C 381.521 101.182,382.817 102.365,383.226 102.768 C 383.423 102.961,384.221 103.679,385.000 104.365 C 385.779 105.050,386.690 105.867,387.023 106.180 C 387.550 106.675,389.247 108.217,390.403 109.250 C 392.612 111.226,393.852 112.347,394.364 112.833 C 394.702 113.154,395.294 113.679,395.679 114.000 C 396.065 114.321,396.501 114.720,396.648 114.887 C 397.154 115.460,399.624 117.500,399.812 117.500 C 399.951 117.500,400.000 107.693,400.000 79.917 L 400.000 42.333 392.737 42.333 L 385.474 42.333 385.572 59.208 C 385.625 68.490,385.712 78.103,385.763 80.572 C 385.867 85.529,385.931 85.258,384.895 84.259 C 384.554 83.929,382.924 82.434,380.679 80.391 C 380.090 79.855,379.372 79.192,379.083 78.917 C 378.794 78.642,377.856 77.779,377.000 77.000 C 376.144 76.221,375.135 75.283,374.759 74.917 C 374.382 74.550,373.525 73.762,372.852 73.167 C 372.180 72.571,371.143 71.615,370.548 71.042 C 369.952 70.469,369.430 70.000,369.386 70.000 C 369.343 70.000,369.026 69.719,368.683 69.375 C 368.339 69.031,367.433 68.188,366.668 67.500 C 365.903 66.813,364.925 65.912,364.496 65.500 C 364.066 65.087,363.250 64.337,362.682 63.833 C 362.115 63.329,361.143 62.429,360.522 61.833 C 359.901 61.237,358.803 60.225,358.082 59.583 C 357.361 58.942,356.578 58.231,356.344 58.003 C 356.109 57.776,355.542 57.258,355.083 56.853 C 354.020 55.912,350.974 53.101,349.343 51.557 C 348.095 50.374,347.817 50.120,346.175 48.667 C 345.318 47.908,344.737 47.373,341.635 44.483 C 340.690 43.603,339.467 42.490,338.917 42.008 C 338.367 41.527,337.607 40.810,337.228 40.416 C 336.220 39.366,335.708 39.132,335.353 39.559 M81.944 42.444 C 81.670 42.719,81.822 114.460,82.097 114.566 C 82.442 114.698,132.058 114.698,132.403 114.566 C 132.638 114.475,132.667 113.695,132.667 107.482 L 132.667 100.500 114.500 100.500 L 96.333 100.500 96.333 93.000 L 96.333 85.500 111.486 85.500 C 119.821 85.500,126.758 85.454,126.903 85.399 C 127.138 85.309,127.167 84.529,127.167 78.316 L 127.167 71.333 111.750 71.333 L 96.333 71.333 96.333 63.917 L 96.333 56.502 113.792 56.459 L 131.250 56.417 131.293 49.375 L 131.337 42.333 106.696 42.333 C 93.144 42.333,82.006 42.383,81.944 42.444 M145.833 78.493 L 145.833 114.653 152.937 114.663 C 158.031 114.670,160.106 114.619,160.271 114.483 C 160.461 114.325,160.500 112.395,160.500 103.077 L 160.500 91.861 167.708 91.787 C 175.030 91.712,176.157 91.628,178.333 90.996 C 178.929 90.823,179.867 90.554,180.417 90.399 C 180.967 90.243,181.454 90.071,181.500 90.016 C 181.635 89.855,182.826 89.333,183.058 89.333 C 183.175 89.333,183.418 89.202,183.599 89.042 C 183.779 88.881,184.299 88.563,184.755 88.333 C 185.211 88.104,185.643 87.823,185.717 87.708 C 185.790 87.594,186.090 87.377,186.383 87.226 C 186.677 87.075,187.076 86.794,187.270 86.601 C 187.464 86.408,188.064 85.825,188.603 85.305 C 190.011 83.948,191.134 82.540,191.706 81.417 C 191.892 81.050,192.095 80.712,192.156 80.667 C 192.217 80.621,192.401 80.283,192.565 79.917 C 192.729 79.550,193.038 78.875,193.253 78.417 C 193.596 77.685,194.464 75.179,194.569 74.619 C 194.590 74.508,194.694 74.004,194.801 73.500 C 195.811 68.728,195.781 63.660,194.719 59.583 C 194.576 59.033,194.444 58.508,194.426 58.417 C 194.407 58.325,194.267 57.960,194.113 57.605 C 193.959 57.250,193.833 56.921,193.833 56.873 C 193.833 56.502,192.117 53.283,191.456 52.417 C 191.386 52.325,191.105 51.950,190.830 51.583 C 190.249 50.808,188.463 48.972,187.778 48.446 C 187.518 48.246,186.957 47.802,186.531 47.458 C 186.105 47.115,185.661 46.833,185.545 46.833 C 185.428 46.833,185.333 46.767,185.333 46.686 C 185.333 46.605,185.202 46.494,185.042 46.440 C 184.881 46.385,184.300 46.091,183.750 45.785 C 183.200 45.480,182.300 45.055,181.750 44.841 C 181.200 44.628,180.525 44.357,180.250 44.239 C 179.460 43.902,177.295 43.332,176.802 43.333 C 176.555 43.333,176.312 43.268,176.263 43.188 C 175.898 42.597,170.093 42.335,157.375 42.334 L 145.833 42.333 145.833 78.493 M261.036 67.194 C 261.074 86.902,261.127 92.070,261.292 92.125 C 261.414 92.166,261.500 92.483,261.500 92.894 C 261.500 93.279,261.613 94.004,261.750 94.505 C 261.888 95.007,262.086 95.810,262.190 96.292 C 262.294 96.773,262.438 97.167,262.510 97.167 C 262.581 97.167,262.693 97.410,262.757 97.708 C 262.965 98.680,265.197 102.907,265.771 103.417 C 265.874 103.508,266.024 103.705,266.104 103.855 C 266.378 104.365,267.749 105.894,268.988 107.073 C 269.669 107.720,270.363 108.381,270.530 108.542 C 270.697 108.702,270.899 108.833,270.980 108.833 C 271.060 108.833,271.218 108.944,271.330 109.079 C 271.550 109.345,273.871 110.917,274.852 111.465 C 276.611 112.449,278.452 113.260,279.458 113.495 C 279.940 113.608,280.333 113.753,280.333 113.819 C 280.333 113.957,282.306 114.415,284.333 114.748 C 285.112 114.876,286.125 115.057,286.583 115.150 C 287.681 115.374,294.398 115.291,294.695 115.050 C 294.817 114.951,295.404 114.819,296.000 114.756 C 298.474 114.496,302.950 113.041,305.083 111.804 C 305.267 111.698,305.829 111.386,306.333 111.111 C 306.837 110.837,307.287 110.560,307.333 110.497 C 307.379 110.434,307.613 110.277,307.853 110.149 C 309.041 109.516,312.348 106.597,313.417 105.237 C 313.692 104.887,314.067 104.435,314.250 104.232 C 315.238 103.138,317.165 99.790,317.688 98.258 C 317.874 97.713,318.121 97.075,318.236 96.841 C 318.438 96.434,318.765 95.043,319.159 92.917 C 319.261 92.367,319.417 91.528,319.506 91.053 C 319.607 90.513,319.652 81.218,319.626 66.303 L 319.583 42.417 312.382 42.373 L 305.181 42.330 305.125 66.123 C 305.081 85.047,305.025 90.050,304.854 90.566 C 304.557 91.459,303.477 93.727,303.290 93.852 C 303.136 93.955,302.820 94.460,302.520 95.083 C 302.207 95.735,299.154 98.433,298.542 98.600 C 298.335 98.657,298.167 98.774,298.167 98.861 C 298.167 99.016,296.512 99.816,295.975 99.921 C 295.823 99.950,295.477 100.090,295.205 100.230 C 292.548 101.604,284.305 100.734,282.750 98.916 C 282.658 98.808,282.308 98.565,281.972 98.374 C 281.281 97.982,281.046 97.788,279.702 96.500 C 277.869 94.743,276.363 92.080,275.855 89.700 C 275.720 89.067,275.667 82.224,275.667 65.575 L 275.667 42.333 268.328 42.333 L 260.990 42.333 261.036 67.194 M172.718 56.676 C 173.377 56.772,174.142 56.952,174.417 57.075 C 174.692 57.198,175.313 57.471,175.797 57.680 C 176.741 58.090,179.000 60.100,179.000 60.531 C 179.000 60.669,179.150 60.917,179.333 61.083 C 179.517 61.249,179.667 61.474,179.667 61.584 C 179.667 61.693,179.782 62.013,179.923 62.296 C 180.064 62.579,180.268 63.246,180.377 63.780 C 180.485 64.313,180.651 64.804,180.745 64.869 C 181.017 65.057,180.970 68.979,180.694 69.150 C 180.572 69.225,180.479 69.335,180.489 69.394 C 180.712 70.781,177.552 75.833,176.462 75.833 C 176.357 75.833,176.117 75.971,175.927 76.138 C 175.503 76.514,173.918 77.167,173.428 77.167 C 173.229 77.167,172.973 77.260,172.859 77.375 C 172.702 77.532,171.153 77.597,166.575 77.638 L 160.500 77.692 160.500 67.096 L 160.500 56.500 166.010 56.500 C 169.040 56.500,172.059 56.579,172.718 56.676 " stroke="none" fill="#74acd4" fill-rule="evenodd"></path><path id="path1" d="M220.708 24.208 L 220.750 48.417 228.333 48.417 L 235.917 48.417 235.959 24.208 L 236.001 0.000 228.333 0.000 L 220.666 0.000 220.708 24.208 M201.935 13.454 C 201.879 13.510,201.833 25.392,201.833 39.858 L 201.833 66.160 202.208 66.251 C 202.415 66.301,214.321 66.321,228.667 66.296 L 254.750 66.250 254.792 39.865 C 254.820 22.252,254.779 13.514,254.667 13.583 C 254.575 13.640,254.500 13.607,254.500 13.510 C 254.500 13.268,240.108 13.264,239.656 13.506 C 239.340 13.675,239.333 14.066,239.333 32.839 L 239.333 52.000 228.250 52.000 L 217.167 52.000 217.167 32.930 C 217.167 22.442,217.120 13.740,217.064 13.592 C 216.959 13.320,202.204 13.185,201.935 13.454 M335.082 77.000 C 335.082 97.396,335.101 105.740,335.125 95.542 C 335.149 85.344,335.149 68.656,335.125 58.458 C 335.101 48.260,335.082 56.604,335.082 77.000 M221.000 91.899 C 221.000 111.866,221.025 113.974,221.264 114.066 C 221.608 114.198,235.059 114.198,235.403 114.066 C 235.642 113.974,235.667 111.866,235.667 91.899 L 235.667 69.833 228.333 69.833 L 221.000 69.833 221.000 91.899 M14.372 84.500 C 14.372 84.821,14.406 84.952,14.448 84.792 C 14.490 84.631,14.490 84.369,14.448 84.208 C 14.406 84.048,14.372 84.179,14.372 84.500 M350.045 113.500 C 350.045 113.912,350.078 114.081,350.118 113.875 C 350.157 113.669,350.157 113.331,350.118 113.125 C 350.078 112.919,350.045 113.087,350.045 113.500 " stroke="none" fill="#84d4e4" fill-rule="evenodd"></path><path id="path2" d="M64.833 79.950 C 64.787 100.593,64.806 117.427,64.875 117.358 C 64.944 117.289,64.982 100.399,64.959 79.825 L 64.917 42.417 64.833 79.950 M68.887 131.573 C 66.829 132.217,65.986 133.699,65.988 136.670 C 65.990 139.648,66.495 140.526,69.392 142.583 C 72.045 144.468,72.419 145.169,72.411 148.246 C 72.403 151.493,71.610 152.602,69.706 152.031 C 68.479 151.664,68.271 150.750,68.514 146.778 C 68.574 145.796,68.539 145.607,68.260 145.403 C 67.535 144.873,66.000 145.260,66.000 145.971 C 66.000 146.079,65.929 146.167,65.841 146.167 C 65.538 146.167,65.335 147.427,65.334 149.317 C 65.333 152.052,66.246 153.828,68.036 154.575 C 68.998 154.976,71.985 154.933,72.822 154.506 C 75.673 153.051,76.547 146.805,74.430 143.015 C 74.073 142.375,72.335 140.706,71.725 140.416 C 71.418 140.270,71.167 140.085,71.167 140.003 C 71.167 139.922,71.032 139.813,70.868 139.761 C 69.458 139.313,68.393 137.250,68.821 135.796 C 69.622 133.076,72.333 133.815,72.333 136.753 C 72.333 138.220,74.280 138.892,74.904 137.641 C 75.195 137.058,75.261 135.411,75.000 135.250 C 74.908 135.193,74.833 134.935,74.833 134.675 C 74.833 132.330,71.698 130.694,68.887 131.573 M124.250 131.495 C 122.613 131.848,121.410 132.878,120.888 134.377 C 120.376 135.846,120.427 151.049,120.948 152.271 C 121.790 154.246,122.815 154.835,125.401 154.830 C 128.063 154.824,128.873 154.380,129.855 152.386 L 130.250 151.583 130.250 143.250 L 130.250 134.917 129.841 134.086 C 128.826 132.022,126.598 130.990,124.250 131.495 M159.250 131.601 C 158.883 131.735,158.412 132.029,158.202 132.255 C 157.992 132.482,157.759 132.667,157.685 132.667 C 157.611 132.667,157.417 132.985,157.253 133.375 C 157.089 133.765,156.834 134.346,156.686 134.667 C 156.448 135.182,156.417 136.354,156.417 144.689 L 156.417 154.129 156.833 154.476 C 157.426 154.969,158.494 154.955,158.971 154.448 C 159.321 154.075,159.333 153.931,159.333 150.364 L 159.333 146.667 161.333 146.667 L 163.333 146.667 163.333 150.405 L 163.333 154.142 163.772 154.488 C 164.344 154.938,165.285 154.932,165.833 154.476 L 166.250 154.129 166.296 145.292 C 166.324 139.861,166.277 136.105,166.174 135.547 C 165.993 134.567,165.208 132.667,164.984 132.667 C 164.909 132.667,164.675 132.482,164.465 132.257 C 163.648 131.379,160.827 131.024,159.250 131.601 M268.713 131.758 C 266.244 132.989,266.167 133.386,266.167 144.870 L 266.167 154.109 266.552 154.471 C 267.053 154.942,267.974 154.949,268.561 154.488 L 269.000 154.142 269.000 150.405 L 269.000 146.667 271.083 146.667 L 273.167 146.667 273.167 150.491 C 273.167 154.815,273.172 154.833,274.537 154.833 C 275.930 154.833,275.855 155.455,275.799 144.368 C 275.744 133.391,275.817 134.038,274.478 132.621 C 273.184 131.252,270.527 130.854,268.713 131.758 M288.606 131.505 C 288.102 131.656,286.833 132.474,286.833 132.648 C 286.833 132.704,286.657 132.954,286.442 133.204 C 285.558 134.232,285.482 135.238,285.535 145.140 L 285.583 154.196 285.977 154.515 C 286.491 154.931,287.509 154.931,288.023 154.515 L 288.417 154.196 288.464 144.899 L 288.511 135.602 289.047 134.884 C 289.798 133.879,290.918 133.882,291.733 134.890 L 292.250 135.531 292.333 144.863 L 292.417 154.196 292.810 154.515 C 293.283 154.898,294.280 154.926,294.750 154.571 C 295.140 154.276,295.360 137.937,295.010 135.284 C 294.606 132.223,291.779 130.555,288.606 131.505 M320.984 131.562 C 319.743 132.006,318.799 133.024,318.415 134.333 C 318.348 134.563,318.208 134.855,318.105 134.984 C 317.970 135.151,317.917 137.893,317.917 144.623 L 317.917 154.029 318.384 154.431 C 318.978 154.942,319.915 154.962,320.500 154.476 L 320.917 154.130 320.970 150.398 L 321.023 146.667 322.928 146.667 L 324.833 146.667 324.833 150.169 C 324.833 153.723,324.892 154.114,325.500 154.616 C 325.876 154.927,326.862 154.868,327.333 154.506 L 327.750 154.186 327.799 145.468 C 327.849 136.603,327.745 134.387,327.253 133.895 C 327.114 133.757,326.957 133.469,326.903 133.255 C 326.543 131.821,323.053 130.823,320.984 131.562 M102.116 131.617 C 101.535 131.767,101.500 132.425,101.500 143.344 C 101.500 155.670,101.399 154.833,102.891 154.833 C 104.190 154.833,104.167 154.936,104.167 149.112 L 104.167 144.000 105.175 144.000 C 107.568 144.000,107.876 144.668,108.019 150.167 C 108.077 152.412,108.134 154.263,108.146 154.280 C 108.600 154.929,109.946 155.054,110.500 154.500 C 111.167 153.833,110.923 143.985,110.234 143.721 C 110.105 143.671,110.000 143.536,110.000 143.419 C 110.000 143.303,109.893 143.119,109.762 143.010 C 109.559 142.842,109.609 142.648,110.095 141.716 L 110.667 140.619 110.667 136.404 L 110.667 132.189 110.183 131.845 C 109.500 131.359,108.658 131.394,108.154 131.930 C 107.756 132.353,107.749 132.415,107.667 136.246 C 107.565 141.006,107.644 140.833,105.558 140.833 L 104.167 140.833 104.167 136.426 C 104.167 131.271,104.095 131.104,102.116 131.617 M140.409 131.909 L 140.000 132.318 140.000 137.576 C 140.000 142.652,139.989 142.833,139.679 142.833 C 139.023 142.833,138.333 143.633,138.333 144.394 C 138.333 145.190,139.127 146.093,139.697 145.944 C 139.983 145.869,140.000 146.070,140.000 149.574 C 140.000 154.965,139.891 154.834,144.378 154.833 C 147.699 154.832,148.167 154.661,148.167 153.448 C 148.167 152.171,147.816 152.000,145.198 152.000 L 143.000 152.000 143.000 148.437 C 143.000 144.377,142.866 144.721,144.667 144.172 C 146.168 143.714,146.500 143.391,146.500 142.391 C 146.500 141.074,145.797 140.614,144.610 141.154 C 144.222 141.331,143.701 141.527,143.453 141.589 L 143.000 141.703 142.996 137.476 C 142.992 133.089,142.886 132.072,142.394 131.713 C 141.894 131.347,140.870 131.449,140.409 131.909 M205.821 131.930 L 205.417 132.360 205.368 137.585 L 205.320 142.810 204.829 142.918 C 203.268 143.261,203.457 145.995,205.042 145.999 C 205.309 146.000,205.334 146.276,205.343 149.375 C 205.359 155.005,205.153 154.750,209.693 154.750 C 213.551 154.750,214.158 154.369,213.238 152.526 L 212.976 152.000 210.651 152.000 L 208.327 152.000 208.372 148.383 L 208.417 144.766 209.417 144.399 C 209.967 144.196,210.621 143.986,210.870 143.930 C 212.337 143.604,212.418 141.367,210.980 140.910 C 210.818 140.859,210.362 140.960,209.967 141.136 C 209.573 141.312,209.047 141.504,208.799 141.563 L 208.348 141.669 208.299 136.903 L 208.250 132.137 207.857 131.818 C 207.272 131.346,206.321 131.398,205.821 131.930 M221.531 131.840 C 221.169 132.177,221.167 132.221,221.167 138.216 L 221.167 144.253 221.598 145.085 C 222.134 146.119,223.309 147.265,223.988 147.414 L 224.500 147.526 224.500 150.771 L 224.500 154.016 224.941 154.425 C 225.557 154.996,226.472 154.982,227.061 154.394 L 227.500 153.955 227.500 150.741 L 227.500 147.526 228.019 147.413 C 228.816 147.238,229.830 146.212,230.361 145.045 L 230.833 144.007 230.833 138.116 L 230.833 132.225 230.448 131.862 C 229.903 131.351,228.945 131.373,228.409 131.909 L 228.000 132.318 228.000 137.234 C 228.000 143.958,227.767 144.833,225.976 144.833 C 224.231 144.833,224.000 143.931,224.000 137.111 C 224.000 134.037,223.941 132.333,223.833 132.333 C 223.742 132.333,223.667 132.223,223.667 132.089 C 223.667 131.465,222.126 131.286,221.531 131.840 M240.696 131.886 L 240.333 132.271 240.337 141.594 C 240.342 151.654,240.356 151.842,241.244 153.229 C 242.370 154.989,245.754 155.537,247.643 154.266 C 248.370 153.776,248.514 153.732,248.690 153.945 C 249.790 155.270,253.862 155.183,255.103 153.808 C 256.450 152.315,256.487 151.987,256.494 141.533 C 256.500 132.157,256.480 131.886,255.743 131.604 C 255.196 131.394,254.391 131.505,254.031 131.840 L 253.667 132.180 253.667 141.184 L 253.667 150.188 253.263 151.071 C 252.843 151.989,252.579 152.160,251.579 152.164 C 250.924 152.167,250.401 151.792,250.256 151.214 C 250.192 150.961,250.052 150.699,249.945 150.633 C 249.801 150.544,249.736 148.097,249.697 141.253 L 249.644 131.993 249.235 131.725 C 248.786 131.431,247.607 131.493,247.271 131.828 C 247.138 131.961,247.059 134.729,246.999 141.300 C 246.939 147.857,246.857 150.711,246.720 151.020 C 245.982 152.673,243.734 152.501,243.409 150.767 C 243.347 150.435,243.229 150.122,243.148 150.072 C 243.065 150.020,243.000 146.041,243.000 141.000 L 243.000 132.019 242.630 131.759 C 242.067 131.365,241.127 131.427,240.696 131.886 M305.576 131.909 L 305.167 132.318 305.167 143.230 L 305.167 154.142 305.606 154.488 C 306.289 155.026,307.202 154.954,307.735 154.321 L 308.167 153.808 308.167 143.211 L 308.167 132.615 307.742 132.057 C 307.190 131.335,306.217 131.268,305.576 131.909 M84.063 131.973 C 83.612 132.350,83.446 132.876,83.583 133.497 C 83.759 134.299,84.399 134.500,86.776 134.500 C 88.887 134.500,89.277 134.657,88.672 135.261 C 88.583 135.350,88.319 136.171,88.086 137.086 C 87.852 138.001,87.593 138.900,87.511 139.083 C 87.428 139.267,87.236 139.942,87.084 140.583 C 86.530 142.921,86.439 143.251,86.334 143.333 C 86.224 143.419,85.752 145.167,85.484 146.482 C 85.402 146.885,85.266 147.297,85.182 147.399 C 85.098 147.500,84.954 147.958,84.861 148.417 C 84.594 149.740,84.177 151.221,83.972 151.579 C 83.868 151.761,83.749 152.398,83.706 152.996 C 83.583 154.738,83.584 154.739,87.937 154.801 C 92.164 154.861,92.500 154.761,92.500 153.434 C 92.500 152.154,92.162 152.000,89.351 152.000 L 86.974 152.000 87.064 151.542 C 87.114 151.290,87.204 150.802,87.263 150.458 C 87.322 150.115,87.428 149.833,87.499 149.833 C 87.569 149.833,87.831 148.952,88.081 147.875 C 88.331 146.798,88.633 145.729,88.753 145.500 C 88.872 145.271,89.020 144.783,89.082 144.417 C 89.204 143.694,89.603 142.284,89.836 141.750 C 89.916 141.567,90.141 140.742,90.336 139.917 C 90.531 139.092,90.797 138.180,90.928 137.891 C 91.059 137.603,91.167 137.277,91.167 137.169 C 91.167 136.989,91.592 135.342,92.037 133.800 C 92.225 133.146,92.029 132.386,91.545 131.902 C 91.153 131.511,84.542 131.573,84.063 131.973 M187.257 132.062 L 186.833 132.485 186.833 143.400 L 186.833 154.314 187.204 154.574 C 187.757 154.961,188.751 154.908,189.160 154.469 C 189.474 154.131,189.500 153.891,189.500 151.302 L 189.500 148.500 190.942 148.500 C 192.800 148.500,195.167 147.379,195.167 146.499 C 195.167 146.421,195.279 146.244,195.417 146.107 C 196.025 145.499,196.245 143.901,196.248 140.083 C 196.251 135.068,195.822 133.662,193.873 132.304 L 193.083 131.754 190.382 131.696 L 187.680 131.638 187.257 132.062 M126.245 134.542 C 127.421 135.311,127.501 135.866,127.495 143.267 C 127.488 151.525,127.356 152.083,125.415 152.083 C 123.490 152.083,123.344 151.459,123.344 143.250 C 123.344 136.345,123.431 135.557,124.286 134.762 C 125.024 134.076,125.458 134.027,126.245 134.542 M162.562 134.672 C 163.232 135.468,163.331 136.171,163.332 140.125 L 163.333 143.833 161.333 143.833 L 159.333 143.833 159.334 140.125 C 159.336 135.109,159.652 134.167,161.333 134.167 C 162.024 134.167,162.197 134.238,162.562 134.672 M272.355 134.835 C 273.019 135.658,273.167 136.692,273.167 140.523 L 273.167 143.833 271.075 143.833 L 268.984 143.833 269.034 139.701 L 269.083 135.569 269.645 134.860 C 270.412 133.892,271.585 133.882,272.355 134.835 M324.037 134.625 C 324.719 135.349,324.831 136.123,324.832 140.125 L 324.833 143.833 322.917 143.833 L 321.000 143.833 321.000 139.739 C 321.000 137.025,321.063 135.522,321.188 135.281 C 321.783 134.129,323.250 133.791,324.037 134.625 M191.992 134.746 C 193.121 135.330,193.333 136.155,193.333 139.963 C 193.333 144.797,192.983 145.500,190.575 145.500 L 189.500 145.500 189.500 140.000 L 189.500 134.500 190.508 134.500 C 191.071 134.500,191.727 134.609,191.992 134.746 " stroke="none" fill="#5c5c5c" fill-rule="evenodd"></path></g></svg>