
<svg version="1.1" xmlns="http://www.w3.org/2000/svg" xmlns:xlink="http://www.w3.org/1999/xlink" x="0px" y="0px" viewBox="0 0 1000 1000" enable-background="new 0 0 1000 1000" xml:space="preserve">

<g><g transform="translate(0.000000,511.000000) scale(0.100000,-0.100000)">

<path d="M6862.4,2317.6c-127.2-55.5-1352.5-573.4-2725.8-1151.3C2765.7,588.3,1623.6,98.2,1600.4,75.1c-55.5-48.6-57.8-152.6-2.3-198.8c20.8-20.8,504-268.2,1070.4-552.5l1031.1-513.3l513.2-1031.1c284.4-566.4,531.7-1049.6,552.5-1070.4c18.5-23.1,62.4-41.6,97.1-41.6s78.6,18.5,99.4,41.6c50.9,55.5,2351.3,5523.2,2351.3,5585.7c0,71.7-69.4,129.5-152.6,127.2C7123.7,2421.7,6989.6,2373.1,6862.4,2317.6z M5147,477.3l-1371-1371l-853.1,427.7c-471.6,233.5-850.8,430-846.2,437c9.2,9.2,4404.2,1868.1,4427.4,1872.7C6511,1846,5898.3,1228.7,5147,477.3z M6062.5,51.9c-358.3-850.8-774.5-1842.6-927.1-2205.6c-152.6-363-282.1-663.5-286.7-668.1c-2.3-4.6-201.1,381.5-437,855.4l-432.3,860L5338.8,253.1c749.1,749.1,1364.1,1357.1,1368.7,1352.5C6712.1,1600.9,6420.9,900.4,6062.5,51.9z"/></g></g>
</svg>