<svg width="24" height="24" viewBox="0 0 24 24" fill="none" xmlns="http://www.w3.org/2000/svg">
<mask id="mask0" mask-type="alpha" maskUnits="userSpaceOnUse" x="1" y="0" width="22" height="24">
<path fill-rule="evenodd" clip-rule="evenodd" d="M21.2332 10.012C21.5489 10.2035 21.8171 10.4716 22.0086 10.7873C22.6679 11.8742 22.32 13.2948 21.2333 13.9541L21.2289 13.9567L5.09594 23.6284L5.09196 23.6308C4.73641 23.8417 4.33 23.9532 3.91657 23.9533L3.9162 23.9532C2.64513 23.9532 1.61103 22.9194 1.61084 21.6483V2.30465V2.30446C1.61089 1.89113 1.72242 1.48468 1.93323 1.12912C2.58151 0.0356929 3.99849 -0.326459 5.09192 0.321868L5.09645 0.324582L21.2294 10.0097L21.2332 10.012ZM4.10352 21.9671L20.2311 12.2985C20.4044 12.1923 20.4596 11.965 20.354 11.7911C20.3237 11.741 20.2812 11.6983 20.2311 11.6676L4.10361 1.98568C3.98937 1.9185 3.87975 1.93216 3.82459 1.94624C3.76911 1.96042 3.6659 2.00131 3.59788 2.11607C3.56406 2.17314 3.54614 2.23831 3.54609 2.30461H3.54614V21.6481C3.54614 21.7814 3.61407 21.8692 3.65454 21.9097C3.695 21.9501 3.78286 22.018 3.91624 22.018C3.98207 22.018 4.04682 22.0004 4.10352 21.9671Z" fill="white"/>
</mask>
<g mask="url(#mask0)">
<rect width="24" height="24" fill="#333333"/>
</g>
</svg>
