<?xml version="1.0" encoding="iso-8859-1"?>
<!-- Generator: Adobe Illustrator 19.0.0, SVG Export Plug-In . SVG Version: 6.00 Build 0)  -->
<svg version="1.1" id="Capa_1" xmlns="http://www.w3.org/2000/svg" xmlns:xlink="http://www.w3.org/1999/xlink" x="0px" y="0px"
	 viewBox="0 0 512 512" style="enable-background:new 0 0 512 512;" xml:space="preserve">
<g>
	<g>
		<path d="M320.104,208.005c-4.149,0-7.512,3.363-7.512,7.512v4.007c0,4.149,3.364,7.512,7.512,7.512s7.512-3.363,7.512-7.512
			v-4.007C327.617,211.369,324.253,208.005,320.104,208.005z"/>
	</g>
</g>
<g>
	<g>
		<path d="M320.104,238.327c-4.149,0-7.512,3.363-7.512,7.512v8.772c0,4.149,3.364,7.512,7.512,7.512s7.512-3.364,7.512-7.512
			v-8.772C327.617,241.69,324.253,238.327,320.104,238.327z"/>
	</g>
</g>
<g>
	<g>
		<path d="M320.104,273.415c-4.149,0-7.512,3.363-7.512,7.512v8.772c0,4.149,3.364,7.512,7.512,7.512s7.512-3.363,7.512-7.512
			v-8.772C327.617,276.778,324.253,273.415,320.104,273.415z"/>
	</g>
</g>
<g>
	<g>
		<path d="M320.104,308.502c-3.114,0-5.785,1.895-6.924,4.594c-2.699,1.139-4.594,3.81-4.594,6.924c0,4.149,3.363,7.512,7.512,7.512
			h4.007c4.149,0,7.512-3.364,7.512-7.512v-4.006C327.617,311.865,324.253,308.502,320.104,308.502z"/>
	</g>
</g>
<g>
	<g>
		<path d="M290.329,312.508h-8.59c-4.149,0-7.512,3.363-7.512,7.512s3.363,7.512,7.512,7.512h8.59c4.149,0,7.512-3.364,7.512-7.512
			S294.478,312.508,290.329,312.508z"/>
	</g>
</g>
<g>
	<g>
		<path d="M255.97,312.508h-8.59c-4.149,0-7.512,3.363-7.512,7.512s3.363,7.512,7.512,7.512h8.59c4.149,0,7.512-3.364,7.512-7.512
			S260.119,312.508,255.97,312.508z"/>
	</g>
</g>
<g>
	<g>
		<path d="M221.611,312.508h-4.007c-4.149,0-7.512,3.363-7.512,7.512s3.363,7.512,7.512,7.512h4.007
			c4.149,0,7.512-3.364,7.512-7.512S225.76,312.508,221.611,312.508z"/>
	</g>
</g>
<g>
	<g>
		<path d="M504.404,184.467h-56.091c-4.149,0-7.512,3.364-7.512,7.512s3.363,7.512,7.512,7.512h48.579v297.484H199.408V320.021
			c0-4.149-3.363-7.512-7.512-7.512H15.108V15.024h297.484v176.788c0,0.028,0.004,0.055,0.004,0.083
			c0,0.028-0.004,0.055-0.004,0.083c0,4.149,3.364,7.512,7.512,7.512h91.816c4.149,0,7.512-3.363,7.512-7.512
			s-3.363-7.512-7.512-7.512h-84.304V7.512c0-4.149-3.363-7.512-7.512-7.512H7.596C3.447,0,0.084,3.363,0.084,7.512v312.508
			c0,4.149,3.363,7.512,7.512,7.512h176.788v176.955c0,4.149,3.363,7.512,7.512,7.512h312.508c4.149,0,7.512-3.363,7.512-7.512
			V191.979C511.916,187.83,508.553,184.467,504.404,184.467z"/>
	</g>
</g>
<g>
	<g>
		<path d="M191.896,284.796c-4.149,0-7.512,3.364-7.512,7.512v4.007c0,4.149,3.363,7.512,7.512,7.512s7.512-3.363,7.512-7.512
			v-4.007C199.408,288.16,196.044,284.796,191.896,284.796z"/>
	</g>
</g>
<g>
	<g>
		<path d="M191.896,249.77c-4.149,0-7.512,3.363-7.512,7.512v8.756c0,4.149,3.363,7.512,7.512,7.512s7.512-3.363,7.512-7.512v-8.756
			C199.408,253.134,196.044,249.77,191.896,249.77z"/>
	</g>
</g>
<g>
	<g>
		<path d="M191.896,214.743c-4.149,0-7.512,3.364-7.512,7.512v8.756c0,4.149,3.363,7.512,7.512,7.512s7.512-3.363,7.512-7.512
			v-8.756C199.408,218.107,196.044,214.743,191.896,214.743z"/>
	</g>
</g>
<g>
	<g>
		<path d="M195.902,184.467h-4.007c-4.149,0-7.512,3.364-7.512,7.512v4.006c0,4.149,3.363,7.512,7.512,7.512
			c3.114,0,5.785-1.895,6.924-4.594c2.7-1.139,4.594-3.81,4.594-6.924C203.414,187.831,200.051,184.467,195.902,184.467z"/>
	</g>
</g>
<g>
	<g>
		<path d="M266.077,184.467h-8.772c-4.149,0-7.512,3.364-7.512,7.512s3.363,7.512,7.512,7.512h8.772
			c4.149,0,7.512-3.363,7.512-7.512S270.226,184.467,266.077,184.467z"/>
	</g>
</g>
<g>
	<g>
		<path d="M230.99,184.467h-8.772c-4.149,0-7.512,3.364-7.512,7.512s3.363,7.512,7.512,7.512h8.772c4.149,0,7.512-3.363,7.512-7.512
			S235.139,184.467,230.99,184.467z"/>
	</g>
</g>
<g>
	<g>
		<path d="M296.4,184.467h-4.007c-4.149,0-7.512,3.364-7.512,7.512s3.363,7.512,7.512,7.512h4.007c4.149,0,7.512-3.363,7.512-7.512
			S300.548,184.467,296.4,184.467z"/>
	</g>
</g>
<g>
</g>
<g>
</g>
<g>
</g>
<g>
</g>
<g>
</g>
<g>
</g>
<g>
</g>
<g>
</g>
<g>
</g>
<g>
</g>
<g>
</g>
<g>
</g>
<g>
</g>
<g>
</g>
<g>
</g>
</svg>
