<svg width="20" height="20" viewBox="0 0 20 20" fill="none" xmlns="http://www.w3.org/2000/svg">

<path fill-rule="evenodd" clip-rule="evenodd" d="M14.8746 4.16715C14.7198 3.12309 14.2435 2.17672 13.4971 1.43035C12.7507 0.683984 11.8044 0.207695 10.7603 0.0528516C10.285 -0.0176172 9.80299 -0.0176172 9.32764 0.0528516C6.664 0.447852 4.81834 2.93621 5.2133 5.59984C5.40463 6.89016 6.08701 8.02875 7.13471 8.80582C7.98525 9.43668 8.99381 9.76801 10.0337 9.76797C10.2747 9.76797 10.5175 9.75016 10.7603 9.71414C13.4239 9.31914 15.2696 6.83078 14.8746 4.16715ZM9.9999 12.2709C4.40479 12.2709 0.0219727 14.8635 0.0219727 18.1732V19.1921C0.0219727 19.6383 0.383691 20 0.829863 20C1.27604 20 1.63775 19.6383 1.63775 19.1921V18.1732C1.63775 15.8496 5.46713 13.8866 9.9999 13.8866C14.5327 13.8866 18.3621 15.8496 18.3621 18.1732V19.1921C18.3621 19.6383 18.7237 20 19.1699 20C19.6162 20 19.9778 19.6383 19.9778 19.1921V18.1732C19.9778 14.8635 15.595 12.2709 9.9999 12.2709ZM8.09736 7.50805C8.79838 8.02805 9.6601 8.24391 10.5233 8.11582C12.3056 7.85157 13.5406 6.18653 13.2764 4.40422C13.0638 2.9702 11.9574 1.86383 10.5234 1.65118C10.3644 1.62762 10.2042 1.61582 10.0441 1.61582C9.88393 1.61582 9.72381 1.62762 9.56475 1.65118C7.78244 1.91547 6.54744 3.58051 6.81174 5.36286C6.93975 6.22621 7.39631 6.98809 8.09736 7.50805Z" fill="black"/>

</svg>
